PathFileType	4	(X/Y/Z)	C:/Users/beibeiliu/ov580/test_trc/User3\sequence.37_training_dense_right.trc
DataRate	CameraRate	NumFrames	NumMarkers	Units	OrigDataRate	OrigDataStartFrame	OrigNumFrames
120	120	16	19	mm	120	54	80
Frame#	Time	ThumbCMC			ThumbMCP			ThumbIP			ThumbTip			IndexMCP			IndexPIP			IndexTip			MiddleMCP			MiddlePIP			MiddleTip			RingMCP			RingPIP			RingTip			PinkyMCP			PinkyPIP			PinkyTip			BackHand1			BackHand2			BackHand3	
		X0	Y0	Z0	X1	Y1	Z1	X2	Y2	Z2	X3	Y3	Z3	X4	Y4	Z4	X5	Y5	Z5	X6	Y6	Z6	X7	Y7	Z7	X8	Y8	Z8	X9	Y9	Z9	X10	Y10	Z10	X11	Y11	Z11	X12	Y12	Z12	X13	Y13	Z13	X14	Y14	Z14	X15	Y15	Z15	X16	Y16	Z16	X17	Y17	Z17	X18	Y18	Z18	
53	0.441667	196.236	-19.6002	-15.1077	196.597	-3.416	-43.405	198.652	7.24343	-67.113	200.677	15.9816	-93.0714	200.001	-71.8893	-72.7003	197.786	-80.4855	-98.5287	190.662	-82.9465	-124.33	190.173	-87.7732	-74.67	188.389	-97.0296	-107.578	179.669	-93.4931	-136.959	169.516	-92.5318	-71.6889	169.945	-98.015	-95.6819	168.364	-94.3437	-126.712	148.097	-86.4708	-58.2804	146.537	-92.2999	-79.8165	150.877	-94.503	-102.17	166.963	-81.3567	-16.9121	164.218	-72.6599	9.5117	195.95	-60.4202	-8.17035	
54	0.45	190.738	-2.36216	-15.649	182.16	9.35008	-42.9698	180.605	22.4419	-71.183	175.082	29.591	-90.0993	218.512	-45.6517	-78.1865	219.562	-51.1575	-106.277	214.092	-55.7422	-127.228	217.372	-62.9748	-79.3407	217.606	-68.5341	-111.252	209.31	-66.2883	-139.106	203.464	-72.6035	-73.8634	203.529	-80.885	-97.3687	199.43	-79.5203	-124.437	184.899	-79.9785	-61.8621	185.943	-82.9079	-83.7509	187.117	-85.8129	-109.019	198.396	-65.3043	-21.4338	190.229	-62.3041	9.18219	213.322	-35.9328	-11.862	
55	0.458333	176.138	14.4024	-18.3199	161.412	20.7929	-46.9237	148.349	31.1404	-67.925	139.624	33.8734	-92.1106	217.665	0.695989	-83.4167	219.406	-6.02327	-110.056	216.815	-11.1151	-132.361	226.702	-17.6318	-85.4423	227.073	-20.0587	-115.862	214.656	-26.6365	-148.203	221.699	-36.9042	-77.4615	223.168	-34.5485	-107.876	217.642	-43.7065	-132.999	212.145	-49.5494	-64.9458	214.698	-52.4684	-90.1997	214.656	-47.9355	-111.558	220.24	-32.8427	-26.7603	211.42	-33.7562	4.1432	212.048	2.95335	-16.1931	
56	0.466667	158.269	22.0479	-20.7944	137.83	21.9965	-46.5956	123.077	26.0702	-69.3229	110.095	26.378	-88.7711	197.89	32.1896	-88.1365	198.12	33.949	-113.066	198.348	28.3982	-140.49	213.621	23.6449	-90.9084	214.35	22.385	-120.028	203.008	14.9007	-152.257	217.645	6.49011	-84.6775	221.875	4.60631	-113.982	216.164	-2.20944	-139.202	218.405	-11.1972	-73.8464	222.107	-12.9177	-97.5724	218.888	-13.0811	-121.544	219.227	1.16956	-32.0925	215.878	-2.45177	-3.94263	197.15	25.8436	-21.0096	
57	0.475	141.585	20.6653	-22.9727	120.444	16.5797	-50.015	100.956	15.0352	-72.3487	93.3037	10.3276	-87.1082	167.858	51.7004	-90.4722	170.5	53.3468	-118.578	170.507	48.5935	-145.164	189.854	48.0509	-96.5869	186.495	51.6256	-128.564	180.48	40.628	-157.306	202.457	33.6466	-91.3577	201.486	38.0005	-118.692	193.868	33.2027	-146.792	212.069	18.172	-84.743	207.325	20.7337	-104.132	204.846	21.9707	-131.267	203.29	29.9421	-38.8856	206.789	21.7118	-14.2856	177.111	39.9287	-25.5968	
58	0.483333	128.984	19.3462	-30.0041	108.643	8.25707	-50.0981	88.7547	3.29756	-70.0545	80.0894	-2.50609	-91.2396	143.634	54.5276	-95.779	139.021	58.9664	-125.636	139.04	54.7243	-149.558	162.809	58.096	-101.214	160.342	60.3817	-135.733	149.615	49.5255	-166.571	175.61	49.5918	-98.2429	177.328	51.2085	-127.92	170.828	46.184	-152.207	193.908	34.5117	-91.6374	189.404	36.541	-113.552	185.797	38.4593	-136.756	187.774	41.3129	-46.3864	192.365	34.9138	-17.3322	157.194	45.8348	-29.439	
59	0.491667	116.858	15.7702	-32.8697	94.2012	1.4101	-51.6058	81.7124	-7.07491	-76.3354	69.969	-16.7094	-90.5864	117.562	47.6051	-102.966	116.664	46.474	-130.812	117.767	39.0767	-156.833	138.468	53.3784	-113.384	133.347	51.0999	-143.23	127.642	36.5028	-169.987	157.16	47.9751	-108.268	154.379	47.083	-136.072	150.83	35.918	-160.395	175.987	36.4196	-97.616	171.706	36.0893	-120.255	163.684	33.0886	-140.983	166.367	47.4412	-58.777	174.897	43.8198	-25.8878	139.626	47.5258	-36.0905	
60	0.5	100.721	9.02575	-31.0657	87.0321	-8.3435	-52.3429	68.6582	-23.0838	-70.3157	56.7521	-36.7386	-85.5451	102.224	29.0297	-111.63	95.6245	19.0592	-139.364	94.3546	5.49084	-161.689	117.992	34.1887	-116.765	110.442	24.3402	-146.037	111.334	-1.59745	-174.836	138.775	30.9754	-118.369	135.429	22.6785	-141.467	132.63	4.31398	-164.475	159.926	23.6748	-103.989	148.694	17.9257	-126.217	149.351	12.1389	-146.65	151.04	42.7783	-65.3948	158.387	44.5909	-35.5153	121.256	42.962	-46.8966	
61	0.508333	87.6287	1.00701	-33.5767	72.2762	-22.8987	-42.5877	56.935	-43.0088	-59.7299	52.1462	-57.8788	-73.2509	85.7913	0.589442	-107.99	85.497	-18.0693	-134.86	81.2141	-37.5579	-148.639	107.152	3.29481	-118.716	96.68	-16.8593	-144.724	95.6955	-46.9334	-159.45	121.458	2.19655	-116.385	119.564	-11.2138	-137.633	120.369	-36.1242	-154.108	140.871	1.48943	-105.525	139.793	-8.61226	-122.585	131.709	-23.7531	-145.027	135.124	27.7023	-71.9424	142.015	38.2008	-43.7346	102.653	31.4203	-50.9818	
62	0.516667	74.1273	-5.00791	-28.7796	62.9975	-32.0786	-36.7058	45.8133	-55.7784	-50.0487	37.6582	-72.5742	-56.4408	76.3765	-22.7113	-102.496	73.953	-44.729	-120.899	69.2811	-72.2696	-131.467	92.6429	-24.6302	-117.8	85.2373	-48.5976	-131.763	87.3678	-84.6753	-138.172	113.2	-22.3573	-109.801	105.562	-45.7811	-128.974	107.658	-75.3879	-136.591	133.16	-19.6159	-99.1531	125.359	-36.3343	-116.035	118.913	-55.9406	-129.702	121.769	14.5319	-69.765	131.145	30.4677	-45.4197	92.2854	19.0833	-54.2077	
63	0.525	64.6164	-5.53025	-26.3117	52.0169	-32.3327	-30.9841	32.581	-53.2475	-37.1387	19.6456	-72.7978	-42.3355	66.7353	-32.6062	-96.5808	55.5335	-59.0838	-112.005	58.2845	-87.0231	-114.006	83.2932	-36.7206	-107.461	74.6604	-61.567	-119.473	72.4307	-101.411	-118.853	103.233	-36.6492	-101.553	97.3338	-61.6269	-115.71	93.7857	-89.8693	-116.202	122.12	-34.8845	-91.1711	113.129	-50.7771	-102.828	107.758	-73.2029	-115.216	114.554	4.68135	-71.5001	124.023	22.7556	-44.3472	83.6725	15.0779	-52.9249	
64	0.533333	65.7663	8.11128	-21.3877	42.0907	-18.7367	-27.4896	21.8787	-33.9504	-28.6539	5.09567	-50.4586	-34.8826	56.4679	-26.1413	-91.9691	44.2425	-56.3344	-104.272	39.9859	-82.1572	-102.767	71.8115	-35.9835	-101.636	62.988	-63.9084	-111.222	48.2289	-95.2128	-104.392	92.9665	-41.366	-95.0752	82.4931	-70.299	-106.97	72.0065	-91.6546	-102.165	110.142	-42.5011	-83.5652	100.018	-61.355	-95.2722	92.1246	-82.1937	-102.411	115.196	-1.91927	-68.3128	127.438	17.4998	-44.4996	89.2223	19.1983	-51.5709	
65	0.541667	70.8863	24.5481	-25.1021	46.359	5.04593	-28.5095	19.0317	-0.579872	-32.2111	-0.558606	-10.0346	-34.9387	58.731	-14.3553	-90.6711	42.4097	-41.4508	-99.728	27.0518	-59.8784	-99.0053	71.3854	-33.3033	-100.265	52.0422	-52.6029	-105.66	27.5616	-74.8018	-96.9672	82.7951	-39.538	-90.3856	65.6423	-60.1925	-98.0238	45.8742	-81.3701	-91.6636	99.1698	-45.7173	-76.8721	84.0338	-64.0392	-85.9578	68.8222	-76.9442	-89.0782	119.931	-4.76222	-61.9917	133.731	11.4005	-39.2085	101.928	22.8559	-55.9601	
66	0.55	85.2446	42.6546	-28.8204	56.5525	34.3684	-31.9786	26.9444	39.3958	-41.8339	7.35656	37.6332	-45.8438	62.084	-1.23452	-90.8924	39.8576	-12.64	-101.01	13.8642	-28.9645	-100.287	69.3681	-17.9998	-94.245	42.0211	-31.8612	-102.441	8.93762	-45.3532	-93.6707	74.6638	-33.0742	-86.1139	50.0793	-46.3679	-92.218	26.5236	-54.3124	-87.419	87.3888	-40.7113	-68.8699	69.9225	-49.5446	-76.276	45.5924	-62.4705	-80.2685	120.541	-11.7983	-59.1056	137.517	0.329674	-34.9447	115.497	25.5441	-51.5934	
67	0.558333	105.792	56.0028	-31.1391	75.9561	59.7076	-38.6865	52.3256	70.7804	-52.3952	36.2429	83.1472	-57.5506	69.3042	17.0503	-90.5005	42.468	14.7104	-101.795	15.9166	9.2359	-102.154	63.6135	0.892996	-93.8102	37.6005	-3.64592	-100.306	4.21096	-0.781132	-96.756	68.8701	-16.1204	-77.6301	42.1567	-17.5708	-88.2162	13.2828	-15.972	-86.2325	71.4899	-28.2039	-60.327	48.3005	-25.8675	-73.0167	27.4369	-29.0737	-76.7047	115.506	-9.87797	-49.0845	135.814	-7.64567	-24.9719	124.95	25.4443	-51.5735	
68	0.566667	124.112	57.5097	-33.1909	101.299	71.8245	-43.7571	88.7658	96.0607	-61.5197	78.339	109.683	-71.6444	78.8065	32.232	-90.5609	53.6064	36.2155	-103.642	29.4604	47.9637	-110.839	62.2175	16.0101	-93.0344	39.0217	25.7994	-101.876	9.73506	43.9335	-103.882	58.4501	3.87423	-76.4379	36.9762	13.9363	-89.2349	9.8376	28.6728	-93.95	56.9453	-2.83533	-58.4071	41.7554	3.67624	-68.6243	18.4166	11.9759	-81.538	104.956	-4.99131	-44.5372	120.13	-9.08607	-21.5221	126.022	16.4505	-47.3925	
